<?xml version="1.0" ?><svg id="Layer_1" style="enable-background:new 0 0 1024 1024;" version="1.1" viewBox="0 0 1024 1024" xml:space="preserve" xmlns="http://www.w3.org/2000/svg" xmlns:xlink="http://www.w3.org/1999/xlink"><style type="text/css">
	.st0{fill:none;stroke:#FF2222;stroke-width:20;stroke-miterlimit:10;}
	.st1{fill:none;stroke:#000000;stroke-width:20;stroke-miterlimit:10;}
</style><g id="XMLID_133_"><circle class="st0" cx="453.2" cy="456.2" id="XMLID_132_" r="158.7"/><path class="st0" d="M588.5,487.8c0,0,28.8,51.8,72,43.2" id="XMLID_131_"/><path class="st0" d="M467.6,349.7c0,0,80.6-46,63.3-97.9" id="XMLID_130_"/><path class="st0" d="M372.6,323.8c0,0-48.9-37.4-5.8-69.1" id="XMLID_129_"/><path class="st0" d="M386.9,401.5c0,0,63.3,40.3,17.3,80.6" id="XMLID_128_"/><path class="st0" d="M562.5,421.7c0,0,43.2-60.4,100.7-14.4" id="XMLID_127_"/><path class="st0" d="M338.1,444.7c0,0-77.7-48.9-109.4,5.8" id="XMLID_126_"/><path class="st0" d="M340.9,522.4c0,0-5.8,69.1-51.8,80.6" id="XMLID_124_"/><path class="st0" d="M420.9,569.8c0,0-28.1,50.4,23.7,102.2" id="XMLID_118_"/><path class="st0" d="M530.9,585.7c0,0,20.1,14.4,14.4,60.4" id="XMLID_108_"/><path class="st0" d="M501.9,524c0,0-29-20.3-5.8-43.5c23.2-23.2,7.2-47.8,7.2-47.8" id="XMLID_107_"/><path class="st1" d="M682.7,216.2c120.3,120.3,128.3,310.5,23.8,440c-0.8,1-1.6,1.9-2.4,2.9   c-6.7,8.1-13.8,16-21.4,23.6s-15.5,14.7-23.6,21.4c-1,0.8-1.9,1.6-2.9,2.4c-129.5,104.5-319.7,96.6-440-23.8   C87.3,553.9,87.3,345,216.2,216.2S553.9,87.3,682.7,216.2z" id="XMLID_144_"/><path class="st1" d="M706.4,656.2l56.1,56.1l-50.2,50.2l-56.1-56.1c1-0.8,1.9-1.6,2.9-2.4   c8.1-6.7,16-13.8,23.6-21.4s14.7-15.5,21.4-23.6C704.9,658.1,705.7,657.2,706.4,656.2z" id="XMLID_140_"/><path class="st1" d="M782.7,692.2l125,125c25,25,25,65.5,0,90.5l0,0c-25,25-65.5,25-90.5,0l-125-125L782.7,692.2z" id="XMLID_143_"/></g></svg>