<?xml version="1.0" ?><svg viewBox="0 0 512 512" xmlns="http://www.w3.org/2000/svg"><defs><style>.cls-1{fill:#0071af;}.cls-2{fill:#006095;}.cls-3{fill:#00659d;}.cls-4{fill:#005686;}.cls-5{fill:#f9b7b7;}.cls-6{fill:#59cea7;}.cls-7{fill:#cbe2ef;}.cls-8{fill:#5ca4cc;}.cls-9{fill:#00b378;}.cls-10{fill:#31c292;}.cls-11{fill:#575757;}.cls-12{fill:#bebebe;}.cls-13{fill:#6e6e6e;}.cls-14{fill:#4a4a4a;}.cls-15{fill:#a2a2a2;}.cls-16{fill:#009866;}.cls-17{fill:#4caf8e;}.cls-18{fill:#d49c9c;}.cls-19{fill:#f9dbdb;}.cls-20{fill:#d27676;}.cls-21{fill:#ea8383;}.cls-22{fill:#f0a5a5;}.cls-23{fill:#c76f6f;}.cls-24{fill:#cc8c8c;}</style></defs><g data-name="/ FLAT" id="_FLAT"><rect class="cls-1" height="432" width="288" x="112" y="64"/><path class="cls-2" d="M112.00031,496H400V208.00024C400,367.05811,271.05817,496,112.00031,496Z"/><rect class="cls-3" height="152" rx="32" width="288" x="112" y="24"/><path class="cls-4" d="M248.00012,176H368a32,32,0,0,0,32-32V56a31.95383,31.95383,0,0,0-1.59418-9.97534A152.027,152.027,0,0,1,248.00012,176Z"/><path class="cls-5" d="M343.179,253.05957l-52.23859-17.41284a15.99984,15.99984,0,0,1-10.94037-15.179V208a16.00006,16.00006,0,0,1,6.4-12.8l3.2-2.3999a56.00027,56.00027,0,0,0,22.4-44.8V120a55.99994,55.99994,0,0,0-55.99994-56h-.00018A55.99994,55.99994,0,0,0,200,120v28a56.00027,56.00027,0,0,0,22.4,44.80005l3.2,2.3999A16.00008,16.00008,0,0,1,232,208v12.46777a15.99984,15.99984,0,0,1-10.94037,15.179L168.821,253.05957A48.00008,48.00008,0,0,0,136,298.59644V440a24,24,0,0,0,48,0v-8H328l.00006,8a24,24,0,0,0,48,0V298.59644A48.00008,48.00008,0,0,0,343.179,253.05957Z"/><path class="cls-6" d="M376,376V298.59326a48.00021,48.00021,0,0,0-32.821-45.53369L298.00006,238,296,240l-15.41693,18.50024a31.99975,31.99975,0,0,1-49.16614,0L216,240l-2.00006-2L168.821,253.05957A48.00008,48.00008,0,0,0,136,298.59644V376h48v56H328V376Z"/><path class="cls-7" d="M120,96v71.43706a16,16,0,0,1-7.1248,13.3128L96,192,79.1248,180.74986A16,16,0,0,1,72,167.43706V96A16,16,0,0,1,88,80h16A16,16,0,0,1,120,96Z"/><path class="cls-8" d="M136,416H112a24.02718,24.02718,0,0,1-24-24V176h16V392a8.00917,8.00917,0,0,0,8,8h24Z"/><path class="cls-9" d="M184,432v64H328V432Z"/><path class="cls-10" d="M264,268.99756a32.25026,32.25026,0,0,1-16,0V328h16Z"/><rect class="cls-10" height="72" width="16" x="176" y="304"/><rect class="cls-10" height="72" width="16" x="320" y="304"/><path class="cls-8" d="M72,167.437a16.00053,16.00053,0,0,0,7.12482,13.313L96,192l16.87518-11.25A16.00053,16.00053,0,0,0,120,167.437V120H72Z"/><path class="cls-11" d="M120,32V16H16V32H32V496H48V32H72V64a24,24,0,0,0,48,0V48H104V64a8,8,0,0,1-16,0V32Z"/><path class="cls-8" d="M280.98486,144H231.01514l-30.88068,7.72046a55.94991,55.94991,0,0,0,3.33276,15.65869L232.98486,160h46.03028l29.5177,7.37915a55.952,55.952,0,0,0,3.33276-15.65869Z"/><path class="cls-1" d="M254.13718,128h3.72564a18.10656,18.10656,0,0,1,17.56595,13.71508l2.94671,11.78685a18.10658,18.10658,0,0,1-1.37094,12.489v0A18.10657,18.10657,0,0,1,260.80953,176h-9.61906a18.10657,18.10657,0,0,1-16.195-10.00906v0a18.10658,18.10658,0,0,1-1.37094-12.489l2.94671-11.78685A18.10656,18.10656,0,0,1,254.13718,128Z"/><rect class="cls-11" height="112" rx="16" width="144" x="344" y="96"/><polygon class="cls-12" points="413.809 181.505 400 153.889 388.944 176 368 176 368 160 379.056 160 400 118.111 418.191 154.495 434.191 138.495 444.944 160 464 160 464 176 435.056 176 429.809 165.505 413.809 181.505"/><polygon class="cls-13" points="424 232 424 208 408 208 408 232 376 232 376 248 456 248 456 232 424 232"/><path class="cls-14" d="M376.00012,208H472a16.00008,16.00008,0,0,0,16-16V112a15.97586,15.97586,0,0,0-.6051-4.31372A112.0131,112.0131,0,0,1,376.00012,208Z"/><path class="cls-15" d="M464,176V165.27563A112.652,112.652,0,0,1,454.37384,176Z"/><path class="cls-16" d="M293.00323,432A287.045,287.045,0,0,1,184,486.92651V496H328V432Z"/><rect class="cls-17" height="32" width="16" x="248" y="464"/><path class="cls-18" d="M328,398.45947V432l.00006,8a24,24,0,0,0,48,0V323.22852A288.19045,288.19045,0,0,1,328,398.45947Z"/><path class="cls-17" d="M328,432V398.47A289.71288,289.71288,0,0,1,293.00323,432Z"/><path class="cls-17" d="M345.93182,376H376V323.22876A287.58932,287.58932,0,0,1,345.93182,376Z"/><circle class="cls-19" cx="384" cy="384" r="104"/><rect class="cls-20" height="32" width="16" x="376" y="304"/><rect class="cls-20" height="34.50616" transform="matrix(0.86603, -0.5, 0.5, 0.86603, -117.58617, 220.47684)" width="16.00003" x="344.62645" y="312.40634"/><rect class="cls-20" height="31.64831" transform="translate(-140.55414 460.37665) rotate(-59.99987)" width="16.00003" x="320.42186" y="336.08795"/><rect class="cls-20" height="16" width="32" x="304" y="376"/><rect class="cls-20" height="16.00003" transform="translate(-164.04422 219.95729) rotate(-30.00013)" width="31.64831" x="312.59772" y="408.08787"/><rect class="cls-20" height="16.00003" transform="translate(-205.48067 524.55458) rotate(-60.00007)" width="30.14631" x="336.46347" y="432.2285"/><rect class="cls-20" height="32" width="16" x="376" y="432"/><rect class="cls-20" height="30.14631" transform="translate(-164.31932 267.21305) rotate(-30.00019)" width="16.00003" x="408.46336" y="425.15536"/><rect class="cls-20" height="29.83216" transform="translate(-140.55325 589.63932) rotate(-60.00015)" width="16.00003" x="432.36449" y="401.62591"/><rect class="cls-20" height="16" width="32" x="432" y="376"/><rect class="cls-20" height="16.00003" transform="translate(-116.73113 267.26727) rotate(-29.99985)" width="29.83216" x="425.44842" y="343.45799"/><rect class="cls-20" height="16.00003" transform="translate(-75.6265 524.55421) rotate(-60.00007)" width="30.14631" x="401.39022" y="319.77147"/><circle class="cls-21" cx="384" cy="384" r="56"/><rect class="cls-22" height="16" width="16" x="360" y="352"/><rect class="cls-22" height="16" width="16" x="392" y="368"/><rect class="cls-22" height="16" width="16" x="352" y="384"/><rect class="cls-22" height="16" width="16" x="384" y="400"/><path class="cls-23" d="M360.99988,435.05566a55.99438,55.99438,0,0,0,74.05578-74.05578A112.25187,112.25187,0,0,1,360.99988,435.05566Z"/><path class="cls-24" d="M400,416v-2.2168q-1.34336,1.12866-2.72113,2.2168Z"/></g></svg>